<svg xmlns="http://www.w3.org/2000/svg" xmlns:xlink="http://www.w3.org/1999/xlink" version="1.1" x="0px" y="0px" viewBox="0 0 48 48" enable-background="new 0 0 48 48" xml:space="preserve"><g><g><circle fill="#000000" cx="35.1" cy="41.7" r="1.9"></circle><circle fill="#000000" cx="12.9" cy="41.7" r="1.9"></circle></g><path fill="#000000" d="M40.6,47.5H7.4c-0.6,0-1-0.4-1-1v-45c0-0.6,0.4-1,1-1h33.2c0.6,0,1,0.4,1,1v45   C41.6,47.1,41.2,47.5,40.6,47.5z M8.4,45.5h31.2v-43H8.4V45.5z"></path><path fill="#000000" d="M31,7.2H17c-0.6,0-1-0.4-1-1c0-0.6,0.4-1,1-1h14c0.6,0,1,0.4,1,1C32,6.7,31.5,7.2,31,7.2z"></path><path fill="#000000" d="M24,40.9c-6.7,0-12.1-5.4-12.1-12.1S17.3,16.6,24,16.6c6.7,0,12.1,5.4,12.1,12.1S30.7,40.9,24,40.9z    M24,18.6c-5.6,0-10.1,4.6-10.1,10.1S18.4,38.9,24,38.9s10.1-4.6,10.1-10.1S29.6,18.6,24,18.6z"></path><path fill="#000000" d="M24,32.1c-1.9,0-3.4-1.5-3.4-3.4c0-1.9,1.5-3.4,3.4-3.4c1.9,0,3.4,1.5,3.4,3.4C27.4,30.6,25.9,32.1,24,32.1   z M24,27.3c-0.8,0-1.4,0.6-1.4,1.4c0,0.8,0.6,1.4,1.4,1.4c0.8,0,1.4-0.6,1.4-1.4C25.4,28,24.8,27.3,24,27.3z"></path></g></svg>